<mxfile host="app.diagrams.net" modified="2021-07-21T12:58:19.396Z" agent="5.0 (Windows NT 10.0; Win64; x64) AppleWebKit/537.36 (KHTML, like Gecko) Chrome/91.0.4472.124 Safari/537.36 Edg/91.0.864.70" etag="bL8xtT6Z-EAZVIAb6Q05" version="14.9.0" type="github">
  <diagram id="5AsgHX92mmCU6WrCQTcH" name="Page-1">
    <mxGraphModel dx="1579" dy="666" grid="1" gridSize="10" guides="1" tooltips="1" connect="1" arrows="1" fold="1" page="1" pageScale="1" pageWidth="1169" pageHeight="826" math="0" shadow="0">
      <root>
        <mxCell id="0" />
        <mxCell id="1" parent="0" />
        <mxCell id="Mc9xWjsOcqE8sQy_kGzG-1" value="PriorityForTasks" style="swimlane;fontStyle=1;align=center;verticalAlign=top;childLayout=stackLayout;horizontal=1;startSize=26;horizontalStack=0;resizeParent=1;resizeParentMax=0;resizeLast=0;collapsible=1;marginBottom=0;" parent="1" vertex="1">
          <mxGeometry x="20" y="220" width="250" height="202" as="geometry" />
        </mxCell>
        <mxCell id="Mc9xWjsOcqE8sQy_kGzG-3" value="" style="line;strokeWidth=1;fillColor=none;align=left;verticalAlign=middle;spacingTop=-1;spacingLeft=3;spacingRight=3;rotatable=0;labelPosition=right;points=[];portConstraint=eastwest;" parent="Mc9xWjsOcqE8sQy_kGzG-1" vertex="1">
          <mxGeometry y="26" width="250" height="8" as="geometry" />
        </mxCell>
        <mxCell id="Mc9xWjsOcqE8sQy_kGzG-2" value="+ int: ID&#xa;+ EnumForPriority: EnumForPriority&#xa;+ICollection&lt;Tasks&gt; : Tasks&#xa;" style="text;strokeColor=none;fillColor=none;align=left;verticalAlign=top;spacingLeft=4;spacingRight=4;overflow=hidden;rotatable=0;points=[[0,0.5],[1,0.5]];portConstraint=eastwest;" parent="Mc9xWjsOcqE8sQy_kGzG-1" vertex="1">
          <mxGeometry y="34" width="250" height="66" as="geometry" />
        </mxCell>
        <mxCell id="Mc9xWjsOcqE8sQy_kGzG-4" value="+ getID(): int&#xa;+ setID(): void&#xa;+ getEnumForPriority(): EnumForPriority&#xa;+ setEnumForPriority(): void&#xa;+ getTasks(): ICollection&lt;Tasks&gt;&#xa;+ setTasks(): void" style="text;strokeColor=none;fillColor=none;align=left;verticalAlign=top;spacingLeft=4;spacingRight=4;overflow=hidden;rotatable=0;points=[[0,0.5],[1,0.5]];portConstraint=eastwest;" parent="Mc9xWjsOcqE8sQy_kGzG-1" vertex="1">
          <mxGeometry y="100" width="250" height="102" as="geometry" />
        </mxCell>
        <mxCell id="Mc9xWjsOcqE8sQy_kGzG-6" value="StatusForPlanning" style="swimlane;fontStyle=1;align=center;verticalAlign=top;childLayout=stackLayout;horizontal=1;startSize=26;horizontalStack=0;resizeParent=1;resizeParentMax=0;resizeLast=0;collapsible=1;marginBottom=0;" parent="1" vertex="1">
          <mxGeometry x="10" y="490" width="230" height="210" as="geometry" />
        </mxCell>
        <mxCell id="Mc9xWjsOcqE8sQy_kGzG-7" value="+ int: id&#xa;+ EnumForStatus: Status&#xa;+ ICollection&lt;Tasks&gt; Tasks" style="text;strokeColor=none;fillColor=none;align=left;verticalAlign=top;spacingLeft=4;spacingRight=4;overflow=hidden;rotatable=0;points=[[0,0.5],[1,0.5]];portConstraint=eastwest;" parent="Mc9xWjsOcqE8sQy_kGzG-6" vertex="1">
          <mxGeometry y="26" width="230" height="64" as="geometry" />
        </mxCell>
        <mxCell id="Mc9xWjsOcqE8sQy_kGzG-8" value="" style="line;strokeWidth=1;fillColor=none;align=left;verticalAlign=middle;spacingTop=-1;spacingLeft=3;spacingRight=3;rotatable=0;labelPosition=right;points=[];portConstraint=eastwest;" parent="Mc9xWjsOcqE8sQy_kGzG-6" vertex="1">
          <mxGeometry y="90" width="230" height="8" as="geometry" />
        </mxCell>
        <mxCell id="Mc9xWjsOcqE8sQy_kGzG-9" value="+ getID(): int&#xa;+ setID(): void&#xa;+ getEnumForStatus(): EnumForStatus&#xa;+ setEnumForStatus(): void&#xa;+ getTasks(): ICollection&lt;Tasks&gt;&#xa;+ setTasks(): void" style="text;strokeColor=none;fillColor=none;align=left;verticalAlign=top;spacingLeft=4;spacingRight=4;overflow=hidden;rotatable=0;points=[[0,0.5],[1,0.5]];portConstraint=eastwest;" parent="Mc9xWjsOcqE8sQy_kGzG-6" vertex="1">
          <mxGeometry y="98" width="230" height="112" as="geometry" />
        </mxCell>
        <mxCell id="Mc9xWjsOcqE8sQy_kGzG-18" value="Tasks" style="swimlane;fontStyle=1;align=center;verticalAlign=top;childLayout=stackLayout;horizontal=1;startSize=26;horizontalStack=0;resizeParent=1;resizeParentMax=0;resizeLast=0;collapsible=1;marginBottom=0;" parent="1" vertex="1">
          <mxGeometry x="350" y="190" width="370" height="340" as="geometry" />
        </mxCell>
        <mxCell id="Mc9xWjsOcqE8sQy_kGzG-19" value="+ ID: int&#xa;+ Name: string&#xa;+ Description: string&#xa;+ DateTimeAddeed&quot; DateTime&#xa;+ StatusTask: ICollection&lt;StatusForPlanning&gt;&#xa;+ Priority: ICollection&lt;PriorityForTasks&gt;&#xa;" style="text;strokeColor=none;fillColor=none;align=left;verticalAlign=top;spacingLeft=4;spacingRight=4;overflow=hidden;rotatable=0;points=[[0,0.5],[1,0.5]];portConstraint=eastwest;" parent="Mc9xWjsOcqE8sQy_kGzG-18" vertex="1">
          <mxGeometry y="26" width="370" height="104" as="geometry" />
        </mxCell>
        <mxCell id="Mc9xWjsOcqE8sQy_kGzG-20" value="" style="line;strokeWidth=1;fillColor=none;align=left;verticalAlign=middle;spacingTop=-1;spacingLeft=3;spacingRight=3;rotatable=0;labelPosition=right;points=[];portConstraint=eastwest;" parent="Mc9xWjsOcqE8sQy_kGzG-18" vertex="1">
          <mxGeometry y="130" width="370" height="8" as="geometry" />
        </mxCell>
        <mxCell id="Mc9xWjsOcqE8sQy_kGzG-21" value="+ getID(): int&#xa;+ setID(): void&#xa;+ getName(): string&#xa;+ setName(): void&#xa;+ getDescription(): string&#xa;+ setDescription(): void&#xa;+ getDateTimeAddeed(): DateTime&#xa;+ setDateTimeAddeed(): void&#xa;+ getPriority(): ICollection&lt;PriorityForTasks&gt;&#xa;+ setPriority(): void&#xa;+ getStatusTask():  ICollection&lt;StatusForPlanning&gt;&#xa;+ setStatusTask(): void" style="text;strokeColor=none;fillColor=none;align=left;verticalAlign=top;spacingLeft=4;spacingRight=4;overflow=hidden;rotatable=0;points=[[0,0.5],[1,0.5]];portConstraint=eastwest;" parent="Mc9xWjsOcqE8sQy_kGzG-18" vertex="1">
          <mxGeometry y="138" width="370" height="202" as="geometry" />
        </mxCell>
        <mxCell id="Mc9xWjsOcqE8sQy_kGzG-23" value="" style="endArrow=block;startArrow=block;endFill=1;startFill=1;html=1;" parent="1" edge="1">
          <mxGeometry width="160" relative="1" as="geometry">
            <mxPoint x="270" y="340" as="sourcePoint" />
            <mxPoint x="350" y="340" as="targetPoint" />
          </mxGeometry>
        </mxCell>
        <mxCell id="Mc9xWjsOcqE8sQy_kGzG-24" value="" style="endArrow=block;startArrow=block;endFill=1;startFill=1;html=1;exitX=0.7;exitY=-0.016;exitDx=0;exitDy=0;exitPerimeter=0;" parent="1" source="Mc9xWjsOcqE8sQy_kGzG-6" edge="1">
          <mxGeometry width="160" relative="1" as="geometry">
            <mxPoint x="260" y="420" as="sourcePoint" />
            <mxPoint x="350" y="320" as="targetPoint" />
            <Array as="points">
              <mxPoint x="250" y="470" />
            </Array>
          </mxGeometry>
        </mxCell>
        <mxCell id="Mc9xWjsOcqE8sQy_kGzG-25" value="EnumForPriority" style="swimlane;fontStyle=0;childLayout=stackLayout;horizontal=1;startSize=26;fillColor=none;horizontalStack=0;resizeParent=1;resizeParentMax=0;resizeLast=0;collapsible=1;marginBottom=0;" parent="1" vertex="1">
          <mxGeometry x="270" y="30" width="140" height="156" as="geometry" />
        </mxCell>
        <mxCell id="Mc9xWjsOcqE8sQy_kGzG-26" value="+ One&#xa;" style="text;strokeColor=none;fillColor=none;align=left;verticalAlign=top;spacingLeft=4;spacingRight=4;overflow=hidden;rotatable=0;points=[[0,0.5],[1,0.5]];portConstraint=eastwest;" parent="Mc9xWjsOcqE8sQy_kGzG-25" vertex="1">
          <mxGeometry y="26" width="140" height="26" as="geometry" />
        </mxCell>
        <mxCell id="Mc9xWjsOcqE8sQy_kGzG-27" value="+ Two&#xa;" style="text;strokeColor=none;fillColor=none;align=left;verticalAlign=top;spacingLeft=4;spacingRight=4;overflow=hidden;rotatable=0;points=[[0,0.5],[1,0.5]];portConstraint=eastwest;" parent="Mc9xWjsOcqE8sQy_kGzG-25" vertex="1">
          <mxGeometry y="52" width="140" height="26" as="geometry" />
        </mxCell>
        <mxCell id="Mc9xWjsOcqE8sQy_kGzG-28" value="+ Three" style="text;strokeColor=none;fillColor=none;align=left;verticalAlign=top;spacingLeft=4;spacingRight=4;overflow=hidden;rotatable=0;points=[[0,0.5],[1,0.5]];portConstraint=eastwest;" parent="Mc9xWjsOcqE8sQy_kGzG-25" vertex="1">
          <mxGeometry y="78" width="140" height="26" as="geometry" />
        </mxCell>
        <mxCell id="Mc9xWjsOcqE8sQy_kGzG-29" value="+ Four" style="text;strokeColor=none;fillColor=none;align=left;verticalAlign=top;spacingLeft=4;spacingRight=4;overflow=hidden;rotatable=0;points=[[0,0.5],[1,0.5]];portConstraint=eastwest;" parent="Mc9xWjsOcqE8sQy_kGzG-25" vertex="1">
          <mxGeometry y="104" width="140" height="26" as="geometry" />
        </mxCell>
        <mxCell id="Mc9xWjsOcqE8sQy_kGzG-30" value="+ Five" style="text;strokeColor=none;fillColor=none;align=left;verticalAlign=top;spacingLeft=4;spacingRight=4;overflow=hidden;rotatable=0;points=[[0,0.5],[1,0.5]];portConstraint=eastwest;" parent="Mc9xWjsOcqE8sQy_kGzG-25" vertex="1">
          <mxGeometry y="130" width="140" height="26" as="geometry" />
        </mxCell>
        <mxCell id="Mc9xWjsOcqE8sQy_kGzG-32" value="" style="endArrow=block;startArrow=block;endFill=1;startFill=1;html=1;entryX=0;entryY=0.5;entryDx=0;entryDy=0;exitX=0.564;exitY=-0.006;exitDx=0;exitDy=0;exitPerimeter=0;" parent="1" source="Mc9xWjsOcqE8sQy_kGzG-1" target="Mc9xWjsOcqE8sQy_kGzG-28" edge="1">
          <mxGeometry width="160" relative="1" as="geometry">
            <mxPoint x="170" y="190" as="sourcePoint" />
            <mxPoint x="330" y="190" as="targetPoint" />
          </mxGeometry>
        </mxCell>
        <mxCell id="Mc9xWjsOcqE8sQy_kGzG-35" value="EnumForStatus" style="swimlane;fontStyle=0;childLayout=stackLayout;horizontal=1;startSize=26;fillColor=none;horizontalStack=0;resizeParent=1;resizeParentMax=0;resizeLast=0;collapsible=1;marginBottom=0;" parent="1" vertex="1">
          <mxGeometry x="330" y="550" width="140" height="130" as="geometry" />
        </mxCell>
        <mxCell id="Mc9xWjsOcqE8sQy_kGzG-36" value="+ TODO" style="text;strokeColor=none;fillColor=none;align=left;verticalAlign=top;spacingLeft=4;spacingRight=4;overflow=hidden;rotatable=0;points=[[0,0.5],[1,0.5]];portConstraint=eastwest;" parent="Mc9xWjsOcqE8sQy_kGzG-35" vertex="1">
          <mxGeometry y="26" width="140" height="26" as="geometry" />
        </mxCell>
        <mxCell id="Mc9xWjsOcqE8sQy_kGzG-37" value="+ READY&#xa;" style="text;strokeColor=none;fillColor=none;align=left;verticalAlign=top;spacingLeft=4;spacingRight=4;overflow=hidden;rotatable=0;points=[[0,0.5],[1,0.5]];portConstraint=eastwest;" parent="Mc9xWjsOcqE8sQy_kGzG-35" vertex="1">
          <mxGeometry y="52" width="140" height="26" as="geometry" />
        </mxCell>
        <mxCell id="Mc9xWjsOcqE8sQy_kGzG-38" value="+ INPROGRESS" style="text;strokeColor=none;fillColor=none;align=left;verticalAlign=top;spacingLeft=4;spacingRight=4;overflow=hidden;rotatable=0;points=[[0,0.5],[1,0.5]];portConstraint=eastwest;" parent="Mc9xWjsOcqE8sQy_kGzG-35" vertex="1">
          <mxGeometry y="78" width="140" height="26" as="geometry" />
        </mxCell>
        <mxCell id="Mc9xWjsOcqE8sQy_kGzG-39" value="+ COMPLETED" style="text;strokeColor=none;fillColor=none;align=left;verticalAlign=top;spacingLeft=4;spacingRight=4;overflow=hidden;rotatable=0;points=[[0,0.5],[1,0.5]];portConstraint=eastwest;" parent="Mc9xWjsOcqE8sQy_kGzG-35" vertex="1">
          <mxGeometry y="104" width="140" height="26" as="geometry" />
        </mxCell>
        <mxCell id="Mc9xWjsOcqE8sQy_kGzG-41" value="" style="endArrow=block;startArrow=block;endFill=1;startFill=1;html=1;entryX=0;entryY=1.231;entryDx=0;entryDy=0;entryPerimeter=0;exitX=1.013;exitY=0.688;exitDx=0;exitDy=0;exitPerimeter=0;" parent="1" source="Mc9xWjsOcqE8sQy_kGzG-7" target="Mc9xWjsOcqE8sQy_kGzG-36" edge="1">
          <mxGeometry width="160" relative="1" as="geometry">
            <mxPoint x="170" y="450" as="sourcePoint" />
            <mxPoint x="330" y="450" as="targetPoint" />
          </mxGeometry>
        </mxCell>
      </root>
    </mxGraphModel>
  </diagram>
</mxfile>
